<mxfile host="app.diagrams.net" modified="2024-05-16T13:41:50.610Z" agent="Mozilla/5.0 (Windows NT 10.0; Win64; x64) AppleWebKit/537.36 (KHTML, like Gecko) Chrome/124.0.0.0 Safari/537.36" etag="t1BDVT-4qjqJO0UleaaG" version="24.4.2" type="device">
  <diagram id="04xpxWpLtW-4No_3k1CJ" name="페이지-1">
    <mxGraphModel dx="1050" dy="522" grid="1" gridSize="10" guides="1" tooltips="1" connect="1" arrows="1" fold="1" page="1" pageScale="1" pageWidth="827" pageHeight="1169" math="0" shadow="0">
      <root>
        <mxCell id="0" />
        <mxCell id="1" parent="0" />
        <mxCell id="RobWpGGqG0ft3kgrAjVH-91" value="" style="rounded=1;whiteSpace=wrap;html=1;dashed=1;dashPattern=1 4;strokeWidth=2;strokeColor=#66CC00;" vertex="1" parent="1">
          <mxGeometry x="780" y="710.5500000000001" width="120" height="131.13" as="geometry" />
        </mxCell>
        <mxCell id="RobWpGGqG0ft3kgrAjVH-90" value="" style="rounded=1;whiteSpace=wrap;html=1;dashed=1;dashPattern=1 4;strokeWidth=2;strokeColor=#66CC00;" vertex="1" parent="1">
          <mxGeometry x="30" y="850.37" width="220" height="131.13" as="geometry" />
        </mxCell>
        <mxCell id="RobWpGGqG0ft3kgrAjVH-89" value="" style="rounded=1;whiteSpace=wrap;html=1;dashed=1;dashPattern=1 4;strokeWidth=2;strokeColor=#66CC00;" vertex="1" parent="1">
          <mxGeometry x="30" y="684.38" width="220" height="131.13" as="geometry" />
        </mxCell>
        <mxCell id="RobWpGGqG0ft3kgrAjVH-4" value="" style="rounded=1;whiteSpace=wrap;html=1;dashed=1;dashPattern=1 4;strokeWidth=2;strokeColor=#66CC00;" vertex="1" parent="1">
          <mxGeometry x="330" y="510" width="359.49" height="521.75" as="geometry" />
        </mxCell>
        <mxCell id="N4jOYEA_wOmkNceD2jwZ-5" style="edgeStyle=orthogonalEdgeStyle;rounded=0;orthogonalLoop=1;jettySize=auto;html=1;exitX=0.5;exitY=1;exitDx=0;exitDy=0;" parent="1" edge="1">
          <mxGeometry relative="1" as="geometry">
            <mxPoint x="422.59999999999997" y="729" as="sourcePoint" />
            <mxPoint x="422.59999999999997" y="729" as="targetPoint" />
          </mxGeometry>
        </mxCell>
        <mxCell id="N4jOYEA_wOmkNceD2jwZ-6" value="" style="shape=image;verticalLabelPosition=bottom;labelBackgroundColor=default;verticalAlign=top;aspect=fixed;imageAspect=0;image=https://miro.medium.com/v2/resize:fit:1400/1*pNG0JHmOr3Zp83_hkGyR_A.png;clipPath=inset(5.17% 70.67% 0% 0%);" parent="1" vertex="1">
          <mxGeometry x="102.66999999999996" y="690" width="74.67" height="70" as="geometry" />
        </mxCell>
        <mxCell id="N4jOYEA_wOmkNceD2jwZ-7" value="&lt;font size=&quot;1&quot; color=&quot;#666666&quot; style=&quot;&quot;&gt;&lt;b style=&quot;font-size: 13px;&quot;&gt;사용자 정보 관리 및 인증 서버 (user service)&lt;/b&gt;&lt;/font&gt;" style="text;strokeColor=none;align=center;fillColor=none;html=1;verticalAlign=middle;whiteSpace=wrap;rounded=0;fontSize=15;fontColor=#4D4D4D;" parent="1" vertex="1">
          <mxGeometry x="372.28000000000003" y="701.5" width="281.51" height="30" as="geometry" />
        </mxCell>
        <mxCell id="RobWpGGqG0ft3kgrAjVH-1" value="" style="rounded=1;whiteSpace=wrap;html=1;dashed=1;dashPattern=1 4;strokeColor=#66CC00;" vertex="1" parent="1">
          <mxGeometry x="393.26000000000005" y="653.63" width="54.68" height="37.5" as="geometry" />
        </mxCell>
        <mxCell id="N4jOYEA_wOmkNceD2jwZ-17" value="&lt;b style=&quot;font-size: 13px;&quot;&gt;Spring Cloud Gateway&lt;br&gt;&amp;amp;&lt;br&gt;Spring Cloud Load Balancer&lt;/b&gt;" style="text;strokeColor=none;align=center;fillColor=none;html=1;verticalAlign=middle;whiteSpace=wrap;rounded=0;fontSize=15;fontColor=#666666;" parent="1" vertex="1">
          <mxGeometry x="35" y="761.12" width="210" height="30" as="geometry" />
        </mxCell>
        <mxCell id="N4jOYEA_wOmkNceD2jwZ-21" value="" style="endArrow=classic;html=1;rounded=0;strokeWidth=2;strokeColor=#808080;" parent="1" edge="1">
          <mxGeometry width="50" height="50" relative="1" as="geometry">
            <mxPoint x="260" y="752" as="sourcePoint" />
            <mxPoint x="320" y="752" as="targetPoint" />
          </mxGeometry>
        </mxCell>
        <mxCell id="N4jOYEA_wOmkNceD2jwZ-23" value="" style="shape=image;verticalLabelPosition=bottom;labelBackgroundColor=default;verticalAlign=top;aspect=fixed;imageAspect=0;image=https://cdn-icons-png.flaticon.com/512/528/528260.png;" parent="1" vertex="1">
          <mxGeometry x="426.28000000000003" y="663.25" width="18.25" height="18.25" as="geometry" />
        </mxCell>
        <mxCell id="N4jOYEA_wOmkNceD2jwZ-36" value="" style="shape=image;verticalLabelPosition=bottom;labelBackgroundColor=default;verticalAlign=top;aspect=fixed;imageAspect=0;image=https://cdn4.iconfinder.com/data/icons/redis-2/1451/Untitled-2-512.png;" parent="1" vertex="1">
          <mxGeometry x="403.84999999999997" y="538" width="40" height="40" as="geometry" />
        </mxCell>
        <mxCell id="N4jOYEA_wOmkNceD2jwZ-48" value="" style="shape=image;verticalLabelPosition=bottom;labelBackgroundColor=default;verticalAlign=top;aspect=fixed;imageAspect=0;image=https://miro.medium.com/v2/resize:fit:1400/1*pNG0JHmOr3Zp83_hkGyR_A.png;clipPath=inset(5.17% 70.67% 0% 0%);" parent="1" vertex="1">
          <mxGeometry x="104.47999999999998" y="868.37" width="74.67" height="70" as="geometry" />
        </mxCell>
        <mxCell id="N4jOYEA_wOmkNceD2jwZ-49" value="&lt;b&gt;&lt;font style=&quot;font-size: 13px;&quot; color=&quot;#666666&quot;&gt;Spring Cloud Eureka&lt;/font&gt;&lt;/b&gt;" style="text;strokeColor=none;align=center;fillColor=none;html=1;verticalAlign=middle;whiteSpace=wrap;rounded=0;fontSize=15;fontColor=#4D4D4D;" parent="1" vertex="1">
          <mxGeometry x="56.82000000000001" y="923.37" width="170" height="30" as="geometry" />
        </mxCell>
        <mxCell id="N4jOYEA_wOmkNceD2jwZ-70" value="" style="shape=image;verticalLabelPosition=bottom;labelBackgroundColor=default;verticalAlign=top;aspect=fixed;imageAspect=0;image=https://upload.wikimedia.org/wikipedia/commons/thumb/0/0a/Apache_kafka-icon.svg/1200px-Apache_kafka-icon.svg.png;" parent="1" vertex="1">
          <mxGeometry x="815" y="741.11" width="50" height="50" as="geometry" />
        </mxCell>
        <mxCell id="N4jOYEA_wOmkNceD2jwZ-76" value="&lt;font color=&quot;#808080&quot;&gt;&lt;span style=&quot;font-size: 13px;&quot;&gt;&lt;b&gt;Event Broker&lt;/b&gt;&lt;/span&gt;&lt;/font&gt;" style="text;strokeColor=none;align=center;fillColor=none;html=1;verticalAlign=middle;whiteSpace=wrap;rounded=0;" parent="1" vertex="1">
          <mxGeometry x="795" y="791.5" width="90" height="30" as="geometry" />
        </mxCell>
        <mxCell id="N4jOYEA_wOmkNceD2jwZ-3" value="" style="shape=image;verticalLabelPosition=bottom;labelBackgroundColor=default;verticalAlign=top;aspect=fixed;imageAspect=0;image=data:image/svg+xml,PHN2ZyB4bWxucz0iaHR0cDovL3d3dy53My5vcmcvMjAwMC9zdmciIHZpZXdCb3g9IjAgMCAzMiAzMiIgaGVpZ2h0PSIzMiIgd2lkdGg9IjMyIj48ZyBmaWxsLXJ1bGU9ImV2ZW5vZGQiIGZpbGw9Im5vbmUiPjxwYXRoIGQ9Ik0wIDBoMzJ2MzJIMHoiLz48cGF0aCBkPSJNNS40NjYgMjcuOTkzYTEuMzY0IDEuMzY0IDAgMTAtLjA4Ny0uMDc2bC0uMjY2LS4yMzRDMS45NzIgMjQuNzYyIDAgMjAuNTk3IDAgMTUuOTc4IDAgNy4xNjggNy4xNjggMCAxNS45OCAwYzQuNDggMCA4LjUzIDEuODU3IDExLjQzNSA0LjgzNmExNC42ODEgMTQuNjgxIDAgMDAxLjctMy4wMTVjMi4wMzYgNi4xMTggMy4yMzMgMTEuMjYgMi43OTUgMTUuMzEtLjU5MiA4LjI3NC03LjUwOCAxNC44My0xNS45MyAxNC44M2ExNS45MDMgMTUuOTAzIDAgMDEtMTAuMjc2LTMuNzU3bC0uMjM4LS4yMXptMjMuNTgtNC45ODJjNC4wMS01LjMzNiAxLjc3NS0xMy45NjUtLjA4NS0xOS40OC0xLjY1NyAzLjQ1My01LjczOCA2LjA5NC05LjI2MiA2LjkzLTMuMzAzLjc4OC02LjIyNi4xNDItOS4yODMgMS4zMTgtNi45NyAyLjY4LTYuODYgMTAuOTkyLTMuMDIgMTIuODYuMDAyIDAgLjIzLjEyNC4yMjcuMTIgMC0uMDAyIDUuNjQ0LTEuMTIyIDguNzY0LTIuMjc0IDQuNTYtMS42ODQgOS41NjYtNS44MzUgMTEuMjEzLTEwLjY1Ny0uODc3IDUuMDE1LTUuMTgyIDkuODQtOS41MDcgMTIuMDU2LTIuMzAyIDEuMTgyLTQuMDkyIDEuNDQ1LTcuODggMi43NTYtLjQ2NC4xNTgtLjgyOC4zMTQtLjgyOC4zMTQuOTYtLjE2IDEuOTE3LS4yMTIgMS45MTctLjIxMiA1LjM5My0uMjU1IDEzLjgwNyAxLjUxNiAxNy43NDUtMy43M3oiIGZpbGw9IiM3MEFENTEiLz48L2c+PC9zdmc+;" parent="1" vertex="1">
          <mxGeometry x="397.6" y="663.25" width="18.25" height="18.25" as="geometry" />
        </mxCell>
        <mxCell id="N4jOYEA_wOmkNceD2jwZ-40" value="" style="shape=image;verticalLabelPosition=bottom;labelBackgroundColor=default;verticalAlign=top;aspect=fixed;imageAspect=0;image=https://cdn1.iconfinder.com/data/icons/google-s-logo/150/Google_Icons-09-512.png;" parent="1" vertex="1">
          <mxGeometry x="551.03" y="534.33" width="49.67" height="49.67" as="geometry" />
        </mxCell>
        <mxCell id="RobWpGGqG0ft3kgrAjVH-15" value="&lt;font color=&quot;#666666&quot; style=&quot;font-size: 13px;&quot;&gt;&lt;b&gt;SMTP&lt;/b&gt;&lt;/font&gt;" style="text;strokeColor=none;align=center;fillColor=none;html=1;verticalAlign=middle;whiteSpace=wrap;rounded=0;" vertex="1" parent="1">
          <mxGeometry x="547.7" y="578" width="56.33" height="32.5" as="geometry" />
        </mxCell>
        <mxCell id="RobWpGGqG0ft3kgrAjVH-18" style="edgeStyle=orthogonalEdgeStyle;rounded=0;orthogonalLoop=1;jettySize=auto;html=1;exitX=0.5;exitY=1;exitDx=0;exitDy=0;" edge="1" parent="1">
          <mxGeometry relative="1" as="geometry">
            <mxPoint x="422.6" y="859" as="sourcePoint" />
            <mxPoint x="422.6" y="859" as="targetPoint" />
          </mxGeometry>
        </mxCell>
        <mxCell id="RobWpGGqG0ft3kgrAjVH-41" style="edgeStyle=orthogonalEdgeStyle;rounded=0;orthogonalLoop=1;jettySize=auto;html=1;exitX=0.5;exitY=1;exitDx=0;exitDy=0;" edge="1" parent="1">
          <mxGeometry relative="1" as="geometry">
            <mxPoint x="376.02" y="1020" as="sourcePoint" />
            <mxPoint x="376.02" y="1020" as="targetPoint" />
          </mxGeometry>
        </mxCell>
        <mxCell id="RobWpGGqG0ft3kgrAjVH-62" value="" style="rounded=1;whiteSpace=wrap;html=1;dashed=1;dashPattern=1 4;strokeColor=#66CC00;" vertex="1" parent="1">
          <mxGeometry x="467.6000000000001" y="653.63" width="54.68" height="37.5" as="geometry" />
        </mxCell>
        <mxCell id="RobWpGGqG0ft3kgrAjVH-63" value="" style="shape=image;verticalLabelPosition=bottom;labelBackgroundColor=default;verticalAlign=top;aspect=fixed;imageAspect=0;image=https://cdn-icons-png.flaticon.com/512/528/528260.png;" vertex="1" parent="1">
          <mxGeometry x="500.62" y="663.25" width="18.25" height="18.25" as="geometry" />
        </mxCell>
        <mxCell id="RobWpGGqG0ft3kgrAjVH-64" value="" style="shape=image;verticalLabelPosition=bottom;labelBackgroundColor=default;verticalAlign=top;aspect=fixed;imageAspect=0;image=data:image/svg+xml,PHN2ZyB4bWxucz0iaHR0cDovL3d3dy53My5vcmcvMjAwMC9zdmciIHZpZXdCb3g9IjAgMCAzMiAzMiIgaGVpZ2h0PSIzMiIgd2lkdGg9IjMyIj48ZyBmaWxsLXJ1bGU9ImV2ZW5vZGQiIGZpbGw9Im5vbmUiPjxwYXRoIGQ9Ik0wIDBoMzJ2MzJIMHoiLz48cGF0aCBkPSJNNS40NjYgMjcuOTkzYTEuMzY0IDEuMzY0IDAgMTAtLjA4Ny0uMDc2bC0uMjY2LS4yMzRDMS45NzIgMjQuNzYyIDAgMjAuNTk3IDAgMTUuOTc4IDAgNy4xNjggNy4xNjggMCAxNS45OCAwYzQuNDggMCA4LjUzIDEuODU3IDExLjQzNSA0LjgzNmExNC42ODEgMTQuNjgxIDAgMDAxLjctMy4wMTVjMi4wMzYgNi4xMTggMy4yMzMgMTEuMjYgMi43OTUgMTUuMzEtLjU5MiA4LjI3NC03LjUwOCAxNC44My0xNS45MyAxNC44M2ExNS45MDMgMTUuOTAzIDAgMDEtMTAuMjc2LTMuNzU3bC0uMjM4LS4yMXptMjMuNTgtNC45ODJjNC4wMS01LjMzNiAxLjc3NS0xMy45NjUtLjA4NS0xOS40OC0xLjY1NyAzLjQ1My01LjczOCA2LjA5NC05LjI2MiA2LjkzLTMuMzAzLjc4OC02LjIyNi4xNDItOS4yODMgMS4zMTgtNi45NyAyLjY4LTYuODYgMTAuOTkyLTMuMDIgMTIuODYuMDAyIDAgLjIzLjEyNC4yMjcuMTIgMC0uMDAyIDUuNjQ0LTEuMTIyIDguNzY0LTIuMjc0IDQuNTYtMS42ODQgOS41NjYtNS44MzUgMTEuMjEzLTEwLjY1Ny0uODc3IDUuMDE1LTUuMTgyIDkuODQtOS41MDcgMTIuMDU2LTIuMzAyIDEuMTgyLTQuMDkyIDEuNDQ1LTcuODggMi43NTYtLjQ2NC4xNTgtLjgyOC4zMTQtLjgyOC4zMTQuOTYtLjE2IDEuOTE3LS4yMTIgMS45MTctLjIxMiA1LjM5My0uMjU1IDEzLjgwNyAxLjUxNiAxNy43NDUtMy43M3oiIGZpbGw9IiM3MEFENTEiLz48L2c+PC9zdmc+;" vertex="1" parent="1">
          <mxGeometry x="471.94" y="663.25" width="18.25" height="18.25" as="geometry" />
        </mxCell>
        <mxCell id="RobWpGGqG0ft3kgrAjVH-65" value="&lt;font style=&quot;font-size: 15px;&quot;&gt;. . .&lt;/font&gt;" style="text;strokeColor=none;align=center;fillColor=none;html=1;verticalAlign=middle;whiteSpace=wrap;rounded=0;" vertex="1" parent="1">
          <mxGeometry x="517.5999999999999" y="657.38" width="60" height="30" as="geometry" />
        </mxCell>
        <mxCell id="RobWpGGqG0ft3kgrAjVH-66" style="edgeStyle=orthogonalEdgeStyle;rounded=0;orthogonalLoop=1;jettySize=auto;html=1;exitX=0.5;exitY=1;exitDx=0;exitDy=0;" edge="1" parent="1">
          <mxGeometry relative="1" as="geometry">
            <mxPoint x="422.59999999999997" y="856.87" as="sourcePoint" />
            <mxPoint x="422.59999999999997" y="856.87" as="targetPoint" />
          </mxGeometry>
        </mxCell>
        <mxCell id="RobWpGGqG0ft3kgrAjVH-68" value="" style="rounded=1;whiteSpace=wrap;html=1;dashed=1;dashPattern=1 4;strokeColor=#66CC00;" vertex="1" parent="1">
          <mxGeometry x="393.26000000000005" y="781.5" width="54.68" height="37.5" as="geometry" />
        </mxCell>
        <mxCell id="RobWpGGqG0ft3kgrAjVH-69" value="" style="shape=image;verticalLabelPosition=bottom;labelBackgroundColor=default;verticalAlign=top;aspect=fixed;imageAspect=0;image=https://cdn-icons-png.flaticon.com/512/528/528260.png;" vertex="1" parent="1">
          <mxGeometry x="426.28000000000003" y="791.12" width="18.25" height="18.25" as="geometry" />
        </mxCell>
        <mxCell id="RobWpGGqG0ft3kgrAjVH-70" value="" style="shape=image;verticalLabelPosition=bottom;labelBackgroundColor=default;verticalAlign=top;aspect=fixed;imageAspect=0;image=data:image/svg+xml,PHN2ZyB4bWxucz0iaHR0cDovL3d3dy53My5vcmcvMjAwMC9zdmciIHZpZXdCb3g9IjAgMCAzMiAzMiIgaGVpZ2h0PSIzMiIgd2lkdGg9IjMyIj48ZyBmaWxsLXJ1bGU9ImV2ZW5vZGQiIGZpbGw9Im5vbmUiPjxwYXRoIGQ9Ik0wIDBoMzJ2MzJIMHoiLz48cGF0aCBkPSJNNS40NjYgMjcuOTkzYTEuMzY0IDEuMzY0IDAgMTAtLjA4Ny0uMDc2bC0uMjY2LS4yMzRDMS45NzIgMjQuNzYyIDAgMjAuNTk3IDAgMTUuOTc4IDAgNy4xNjggNy4xNjggMCAxNS45OCAwYzQuNDggMCA4LjUzIDEuODU3IDExLjQzNSA0LjgzNmExNC42ODEgMTQuNjgxIDAgMDAxLjctMy4wMTVjMi4wMzYgNi4xMTggMy4yMzMgMTEuMjYgMi43OTUgMTUuMzEtLjU5MiA4LjI3NC03LjUwOCAxNC44My0xNS45MyAxNC44M2ExNS45MDMgMTUuOTAzIDAgMDEtMTAuMjc2LTMuNzU3bC0uMjM4LS4yMXptMjMuNTgtNC45ODJjNC4wMS01LjMzNiAxLjc3NS0xMy45NjUtLjA4NS0xOS40OC0xLjY1NyAzLjQ1My01LjczOCA2LjA5NC05LjI2MiA2LjkzLTMuMzAzLjc4OC02LjIyNi4xNDItOS4yODMgMS4zMTgtNi45NyAyLjY4LTYuODYgMTAuOTkyLTMuMDIgMTIuODYuMDAyIDAgLjIzLjEyNC4yMjcuMTIgMC0uMDAyIDUuNjQ0LTEuMTIyIDguNzY0LTIuMjc0IDQuNTYtMS42ODQgOS41NjYtNS44MzUgMTEuMjEzLTEwLjY1Ny0uODc3IDUuMDE1LTUuMTgyIDkuODQtOS41MDcgMTIuMDU2LTIuMzAyIDEuMTgyLTQuMDkyIDEuNDQ1LTcuODggMi43NTYtLjQ2NC4xNTgtLjgyOC4zMTQtLjgyOC4zMTQuOTYtLjE2IDEuOTE3LS4yMTIgMS45MTctLjIxMiA1LjM5My0uMjU1IDEzLjgwNyAxLjUxNiAxNy43NDUtMy43M3oiIGZpbGw9IiM3MEFENTEiLz48L2c+PC9zdmc+;" vertex="1" parent="1">
          <mxGeometry x="397.6" y="791.12" width="18.25" height="18.25" as="geometry" />
        </mxCell>
        <mxCell id="RobWpGGqG0ft3kgrAjVH-71" value="" style="rounded=1;whiteSpace=wrap;html=1;dashed=1;dashPattern=1 4;strokeColor=#66CC00;" vertex="1" parent="1">
          <mxGeometry x="467.6000000000001" y="781.5" width="54.68" height="37.5" as="geometry" />
        </mxCell>
        <mxCell id="RobWpGGqG0ft3kgrAjVH-72" value="" style="shape=image;verticalLabelPosition=bottom;labelBackgroundColor=default;verticalAlign=top;aspect=fixed;imageAspect=0;image=https://cdn-icons-png.flaticon.com/512/528/528260.png;" vertex="1" parent="1">
          <mxGeometry x="500.62" y="791.12" width="18.25" height="18.25" as="geometry" />
        </mxCell>
        <mxCell id="RobWpGGqG0ft3kgrAjVH-73" value="" style="shape=image;verticalLabelPosition=bottom;labelBackgroundColor=default;verticalAlign=top;aspect=fixed;imageAspect=0;image=data:image/svg+xml,PHN2ZyB4bWxucz0iaHR0cDovL3d3dy53My5vcmcvMjAwMC9zdmciIHZpZXdCb3g9IjAgMCAzMiAzMiIgaGVpZ2h0PSIzMiIgd2lkdGg9IjMyIj48ZyBmaWxsLXJ1bGU9ImV2ZW5vZGQiIGZpbGw9Im5vbmUiPjxwYXRoIGQ9Ik0wIDBoMzJ2MzJIMHoiLz48cGF0aCBkPSJNNS40NjYgMjcuOTkzYTEuMzY0IDEuMzY0IDAgMTAtLjA4Ny0uMDc2bC0uMjY2LS4yMzRDMS45NzIgMjQuNzYyIDAgMjAuNTk3IDAgMTUuOTc4IDAgNy4xNjggNy4xNjggMCAxNS45OCAwYzQuNDggMCA4LjUzIDEuODU3IDExLjQzNSA0LjgzNmExNC42ODEgMTQuNjgxIDAgMDAxLjctMy4wMTVjMi4wMzYgNi4xMTggMy4yMzMgMTEuMjYgMi43OTUgMTUuMzEtLjU5MiA4LjI3NC03LjUwOCAxNC44My0xNS45MyAxNC44M2ExNS45MDMgMTUuOTAzIDAgMDEtMTAuMjc2LTMuNzU3bC0uMjM4LS4yMXptMjMuNTgtNC45ODJjNC4wMS01LjMzNiAxLjc3NS0xMy45NjUtLjA4NS0xOS40OC0xLjY1NyAzLjQ1My01LjczOCA2LjA5NC05LjI2MiA2LjkzLTMuMzAzLjc4OC02LjIyNi4xNDItOS4yODMgMS4zMTgtNi45NyAyLjY4LTYuODYgMTAuOTkyLTMuMDIgMTIuODYuMDAyIDAgLjIzLjEyNC4yMjcuMTIgMC0uMDAyIDUuNjQ0LTEuMTIyIDguNzY0LTIuMjc0IDQuNTYtMS42ODQgOS41NjYtNS44MzUgMTEuMjEzLTEwLjY1Ny0uODc3IDUuMDE1LTUuMTgyIDkuODQtOS41MDcgMTIuMDU2LTIuMzAyIDEuMTgyLTQuMDkyIDEuNDQ1LTcuODggMi43NTYtLjQ2NC4xNTgtLjgyOC4zMTQtLjgyOC4zMTQuOTYtLjE2IDEuOTE3LS4yMTIgMS45MTctLjIxMiA1LjM5My0uMjU1IDEzLjgwNyAxLjUxNiAxNy43NDUtMy43M3oiIGZpbGw9IiM3MEFENTEiLz48L2c+PC9zdmc+;" vertex="1" parent="1">
          <mxGeometry x="471.94" y="791.12" width="18.25" height="18.25" as="geometry" />
        </mxCell>
        <mxCell id="RobWpGGqG0ft3kgrAjVH-74" value="&lt;font style=&quot;font-size: 15px;&quot;&gt;. . .&lt;/font&gt;" style="text;strokeColor=none;align=center;fillColor=none;html=1;verticalAlign=middle;whiteSpace=wrap;rounded=0;" vertex="1" parent="1">
          <mxGeometry x="517.5999999999999" y="785.25" width="60" height="30" as="geometry" />
        </mxCell>
        <mxCell id="RobWpGGqG0ft3kgrAjVH-75" value="&lt;font size=&quot;1&quot; color=&quot;#666666&quot; style=&quot;&quot;&gt;&lt;b style=&quot;font-size: 13px;&quot;&gt;상품 및 위시리스트 관리 서버 (item service)&lt;/b&gt;&lt;/font&gt;" style="text;strokeColor=none;align=center;fillColor=none;html=1;verticalAlign=middle;whiteSpace=wrap;rounded=0;fontSize=15;fontColor=#4D4D4D;" vertex="1" parent="1">
          <mxGeometry x="372.28000000000003" y="821.5" width="281.51" height="30" as="geometry" />
        </mxCell>
        <mxCell id="RobWpGGqG0ft3kgrAjVH-77" style="edgeStyle=orthogonalEdgeStyle;rounded=0;orthogonalLoop=1;jettySize=auto;html=1;exitX=0.5;exitY=1;exitDx=0;exitDy=0;" edge="1" parent="1">
          <mxGeometry relative="1" as="geometry">
            <mxPoint x="419.31" y="989" as="sourcePoint" />
            <mxPoint x="419.31" y="989" as="targetPoint" />
          </mxGeometry>
        </mxCell>
        <mxCell id="RobWpGGqG0ft3kgrAjVH-78" style="edgeStyle=orthogonalEdgeStyle;rounded=0;orthogonalLoop=1;jettySize=auto;html=1;exitX=0.5;exitY=1;exitDx=0;exitDy=0;" edge="1" parent="1">
          <mxGeometry relative="1" as="geometry">
            <mxPoint x="419.30999999999995" y="986.87" as="sourcePoint" />
            <mxPoint x="419.30999999999995" y="986.87" as="targetPoint" />
          </mxGeometry>
        </mxCell>
        <mxCell id="RobWpGGqG0ft3kgrAjVH-79" value="" style="rounded=1;whiteSpace=wrap;html=1;dashed=1;dashPattern=1 4;strokeColor=#66CC00;" vertex="1" parent="1">
          <mxGeometry x="389.97" y="911.5" width="54.68" height="37.5" as="geometry" />
        </mxCell>
        <mxCell id="RobWpGGqG0ft3kgrAjVH-80" value="" style="shape=image;verticalLabelPosition=bottom;labelBackgroundColor=default;verticalAlign=top;aspect=fixed;imageAspect=0;image=https://cdn-icons-png.flaticon.com/512/528/528260.png;" vertex="1" parent="1">
          <mxGeometry x="422.99" y="921.12" width="18.25" height="18.25" as="geometry" />
        </mxCell>
        <mxCell id="RobWpGGqG0ft3kgrAjVH-81" value="" style="shape=image;verticalLabelPosition=bottom;labelBackgroundColor=default;verticalAlign=top;aspect=fixed;imageAspect=0;image=data:image/svg+xml,PHN2ZyB4bWxucz0iaHR0cDovL3d3dy53My5vcmcvMjAwMC9zdmciIHZpZXdCb3g9IjAgMCAzMiAzMiIgaGVpZ2h0PSIzMiIgd2lkdGg9IjMyIj48ZyBmaWxsLXJ1bGU9ImV2ZW5vZGQiIGZpbGw9Im5vbmUiPjxwYXRoIGQ9Ik0wIDBoMzJ2MzJIMHoiLz48cGF0aCBkPSJNNS40NjYgMjcuOTkzYTEuMzY0IDEuMzY0IDAgMTAtLjA4Ny0uMDc2bC0uMjY2LS4yMzRDMS45NzIgMjQuNzYyIDAgMjAuNTk3IDAgMTUuOTc4IDAgNy4xNjggNy4xNjggMCAxNS45OCAwYzQuNDggMCA4LjUzIDEuODU3IDExLjQzNSA0LjgzNmExNC42ODEgMTQuNjgxIDAgMDAxLjctMy4wMTVjMi4wMzYgNi4xMTggMy4yMzMgMTEuMjYgMi43OTUgMTUuMzEtLjU5MiA4LjI3NC03LjUwOCAxNC44My0xNS45MyAxNC44M2ExNS45MDMgMTUuOTAzIDAgMDEtMTAuMjc2LTMuNzU3bC0uMjM4LS4yMXptMjMuNTgtNC45ODJjNC4wMS01LjMzNiAxLjc3NS0xMy45NjUtLjA4NS0xOS40OC0xLjY1NyAzLjQ1My01LjczOCA2LjA5NC05LjI2MiA2LjkzLTMuMzAzLjc4OC02LjIyNi4xNDItOS4yODMgMS4zMTgtNi45NyAyLjY4LTYuODYgMTAuOTkyLTMuMDIgMTIuODYuMDAyIDAgLjIzLjEyNC4yMjcuMTIgMC0uMDAyIDUuNjQ0LTEuMTIyIDguNzY0LTIuMjc0IDQuNTYtMS42ODQgOS41NjYtNS44MzUgMTEuMjEzLTEwLjY1Ny0uODc3IDUuMDE1LTUuMTgyIDkuODQtOS41MDcgMTIuMDU2LTIuMzAyIDEuMTgyLTQuMDkyIDEuNDQ1LTcuODggMi43NTYtLjQ2NC4xNTgtLjgyOC4zMTQtLjgyOC4zMTQuOTYtLjE2IDEuOTE3LS4yMTIgMS45MTctLjIxMiA1LjM5My0uMjU1IDEzLjgwNyAxLjUxNiAxNy43NDUtMy43M3oiIGZpbGw9IiM3MEFENTEiLz48L2c+PC9zdmc+;" vertex="1" parent="1">
          <mxGeometry x="394.31" y="921.12" width="18.25" height="18.25" as="geometry" />
        </mxCell>
        <mxCell id="RobWpGGqG0ft3kgrAjVH-82" value="" style="rounded=1;whiteSpace=wrap;html=1;dashed=1;dashPattern=1 4;strokeColor=#66CC00;" vertex="1" parent="1">
          <mxGeometry x="464.31000000000006" y="911.5" width="54.68" height="37.5" as="geometry" />
        </mxCell>
        <mxCell id="RobWpGGqG0ft3kgrAjVH-83" value="" style="shape=image;verticalLabelPosition=bottom;labelBackgroundColor=default;verticalAlign=top;aspect=fixed;imageAspect=0;image=https://cdn-icons-png.flaticon.com/512/528/528260.png;" vertex="1" parent="1">
          <mxGeometry x="497.33000000000004" y="921.12" width="18.25" height="18.25" as="geometry" />
        </mxCell>
        <mxCell id="RobWpGGqG0ft3kgrAjVH-84" value="" style="shape=image;verticalLabelPosition=bottom;labelBackgroundColor=default;verticalAlign=top;aspect=fixed;imageAspect=0;image=data:image/svg+xml,PHN2ZyB4bWxucz0iaHR0cDovL3d3dy53My5vcmcvMjAwMC9zdmciIHZpZXdCb3g9IjAgMCAzMiAzMiIgaGVpZ2h0PSIzMiIgd2lkdGg9IjMyIj48ZyBmaWxsLXJ1bGU9ImV2ZW5vZGQiIGZpbGw9Im5vbmUiPjxwYXRoIGQ9Ik0wIDBoMzJ2MzJIMHoiLz48cGF0aCBkPSJNNS40NjYgMjcuOTkzYTEuMzY0IDEuMzY0IDAgMTAtLjA4Ny0uMDc2bC0uMjY2LS4yMzRDMS45NzIgMjQuNzYyIDAgMjAuNTk3IDAgMTUuOTc4IDAgNy4xNjggNy4xNjggMCAxNS45OCAwYzQuNDggMCA4LjUzIDEuODU3IDExLjQzNSA0LjgzNmExNC42ODEgMTQuNjgxIDAgMDAxLjctMy4wMTVjMi4wMzYgNi4xMTggMy4yMzMgMTEuMjYgMi43OTUgMTUuMzEtLjU5MiA4LjI3NC03LjUwOCAxNC44My0xNS45MyAxNC44M2ExNS45MDMgMTUuOTAzIDAgMDEtMTAuMjc2LTMuNzU3bC0uMjM4LS4yMXptMjMuNTgtNC45ODJjNC4wMS01LjMzNiAxLjc3NS0xMy45NjUtLjA4NS0xOS40OC0xLjY1NyAzLjQ1My01LjczOCA2LjA5NC05LjI2MiA2LjkzLTMuMzAzLjc4OC02LjIyNi4xNDItOS4yODMgMS4zMTgtNi45NyAyLjY4LTYuODYgMTAuOTkyLTMuMDIgMTIuODYuMDAyIDAgLjIzLjEyNC4yMjcuMTIgMC0uMDAyIDUuNjQ0LTEuMTIyIDguNzY0LTIuMjc0IDQuNTYtMS42ODQgOS41NjYtNS44MzUgMTEuMjEzLTEwLjY1Ny0uODc3IDUuMDE1LTUuMTgyIDkuODQtOS41MDcgMTIuMDU2LTIuMzAyIDEuMTgyLTQuMDkyIDEuNDQ1LTcuODggMi43NTYtLjQ2NC4xNTgtLjgyOC4zMTQtLjgyOC4zMTQuOTYtLjE2IDEuOTE3LS4yMTIgMS45MTctLjIxMiA1LjM5My0uMjU1IDEzLjgwNyAxLjUxNiAxNy43NDUtMy43M3oiIGZpbGw9IiM3MEFENTEiLz48L2c+PC9zdmc+;" vertex="1" parent="1">
          <mxGeometry x="468.65" y="921.12" width="18.25" height="18.25" as="geometry" />
        </mxCell>
        <mxCell id="RobWpGGqG0ft3kgrAjVH-85" value="&lt;font style=&quot;font-size: 15px;&quot;&gt;. . .&lt;/font&gt;" style="text;strokeColor=none;align=center;fillColor=none;html=1;verticalAlign=middle;whiteSpace=wrap;rounded=0;" vertex="1" parent="1">
          <mxGeometry x="514.31" y="915.25" width="60" height="30" as="geometry" />
        </mxCell>
        <mxCell id="RobWpGGqG0ft3kgrAjVH-86" value="&lt;font size=&quot;1&quot; color=&quot;#666666&quot; style=&quot;&quot;&gt;&lt;b style=&quot;font-size: 13px;&quot;&gt;주문 관리 서버 (order service)&lt;/b&gt;&lt;/font&gt;" style="text;strokeColor=none;align=center;fillColor=none;html=1;verticalAlign=middle;whiteSpace=wrap;rounded=0;fontSize=15;fontColor=#4D4D4D;" vertex="1" parent="1">
          <mxGeometry x="368.99" y="951.5" width="281.51" height="30" as="geometry" />
        </mxCell>
        <mxCell id="RobWpGGqG0ft3kgrAjVH-88" value="&lt;font color=&quot;#666666&quot;&gt;&lt;span style=&quot;font-size: 13px;&quot;&gt;&lt;b&gt;중앙 관리 캐시 DBMS&lt;/b&gt;&lt;/span&gt;&lt;/font&gt;" style="text;strokeColor=none;align=center;fillColor=none;html=1;verticalAlign=middle;whiteSpace=wrap;rounded=0;fontSize=15;fontColor=#4D4D4D;" vertex="1" parent="1">
          <mxGeometry x="286.77" y="578" width="317.26" height="35.5" as="geometry" />
        </mxCell>
        <mxCell id="RobWpGGqG0ft3kgrAjVH-92" value="" style="endArrow=classic;startArrow=classic;html=1;rounded=0;strokeWidth=2;strokeColor=#808080;" edge="1" parent="1">
          <mxGeometry width="50" height="50" relative="1" as="geometry">
            <mxPoint x="703" y="780" as="sourcePoint" />
            <mxPoint x="763" y="780" as="targetPoint" />
          </mxGeometry>
        </mxCell>
      </root>
    </mxGraphModel>
  </diagram>
</mxfile>
